<mxfile host="65bd71144e">
    <diagram id="eqbnVeTcjXjihsbE8R2z" name="Page-1">
        <mxGraphModel dx="1272" dy="521" grid="1" gridSize="10" guides="1" tooltips="1" connect="1" arrows="1" fold="1" page="1" pageScale="1" pageWidth="827" pageHeight="1169" math="0" shadow="0">
            <root>
                <mxCell id="0"/>
                <mxCell id="1" parent="0"/>
                <mxCell id="11" style="edgeStyle=none;html=1;exitX=1;exitY=0.5;exitDx=0;exitDy=0;entryX=0;entryY=0.5;entryDx=0;entryDy=0;endArrow=none;endFill=0;" parent="1" source="3" target="10" edge="1">
                    <mxGeometry relative="1" as="geometry"/>
                </mxCell>
                <mxCell id="13" value="0.N" style="edgeLabel;html=1;align=center;verticalAlign=middle;resizable=0;points=[];" parent="11" vertex="1" connectable="0">
                    <mxGeometry x="0.1725" y="-1" relative="1" as="geometry">
                        <mxPoint x="-20" y="-9" as="offset"/>
                    </mxGeometry>
                </mxCell>
                <mxCell id="3" value="Users" style="swimlane;whiteSpace=wrap;html=1;fillColor=#0050ef;strokeColor=#001DBC;fontColor=#ffffff;startSize=23;" parent="1" vertex="1">
                    <mxGeometry x="40" y="120" width="170" height="210" as="geometry"/>
                </mxCell>
                <mxCell id="24" value="name" style="text;html=1;align=center;verticalAlign=middle;resizable=0;points=[];autosize=1;strokeColor=none;fillColor=none;fontSize=12;" parent="3" vertex="1">
                    <mxGeometry x="10" y="55" width="50" height="30" as="geometry"/>
                </mxCell>
                <mxCell id="25" value="last_name" style="text;html=1;align=center;verticalAlign=middle;resizable=0;points=[];autosize=1;strokeColor=none;fillColor=none;fontSize=12;" parent="3" vertex="1">
                    <mxGeometry x="10" y="90" width="80" height="30" as="geometry"/>
                </mxCell>
                <mxCell id="26" value="phone" style="text;html=1;align=center;verticalAlign=middle;resizable=0;points=[];autosize=1;strokeColor=none;fillColor=none;fontSize=12;" parent="3" vertex="1">
                    <mxGeometry x="10" y="120" width="60" height="30" as="geometry"/>
                </mxCell>
                <mxCell id="27" value="email" style="text;html=1;align=center;verticalAlign=middle;resizable=0;points=[];autosize=1;strokeColor=none;fillColor=none;fontSize=12;" parent="3" vertex="1">
                    <mxGeometry x="15" y="150" width="50" height="30" as="geometry"/>
                </mxCell>
                <mxCell id="30" value="role" style="text;html=1;align=center;verticalAlign=middle;resizable=0;points=[];autosize=1;strokeColor=none;fillColor=none;fontSize=12;" parent="3" vertex="1">
                    <mxGeometry x="15" y="180" width="40" height="30" as="geometry"/>
                </mxCell>
                <mxCell id="4" value="Parking" style="swimlane;whiteSpace=wrap;html=1;fillColor=#0050ef;fontColor=#ffffff;strokeColor=#001DBC;" parent="1" vertex="1">
                    <mxGeometry x="620" y="120" width="146" height="280" as="geometry"/>
                </mxCell>
                <mxCell id="31" value="article_id" style="text;html=1;align=center;verticalAlign=middle;resizable=0;points=[];autosize=1;strokeColor=none;fillColor=none;fontSize=12;" parent="4" vertex="1">
                    <mxGeometry y="25" width="70" height="30" as="geometry"/>
                </mxCell>
                <mxCell id="33" value="title" style="text;html=1;align=center;verticalAlign=middle;resizable=0;points=[];autosize=1;strokeColor=none;fillColor=none;fontSize=12;" parent="4" vertex="1">
                    <mxGeometry x="5" y="85" width="40" height="30" as="geometry"/>
                </mxCell>
                <mxCell id="35" value="city" style="text;html=1;align=center;verticalAlign=middle;resizable=0;points=[];autosize=1;strokeColor=none;fillColor=none;fontSize=12;" parent="4" vertex="1">
                    <mxGeometry x="10" y="145" width="40" height="30" as="geometry"/>
                </mxCell>
                <mxCell id="34" value="price" style="text;html=1;align=center;verticalAlign=middle;resizable=0;points=[];autosize=1;strokeColor=none;fillColor=none;fontSize=12;" parent="4" vertex="1">
                    <mxGeometry x="5" y="115" width="50" height="30" as="geometry"/>
                </mxCell>
                <mxCell id="39" value="description&lt;br&gt;" style="text;html=1;align=center;verticalAlign=middle;resizable=0;points=[];autosize=1;strokeColor=none;fillColor=none;fontSize=12;" parent="4" vertex="1">
                    <mxGeometry x="5" y="210" width="80" height="30" as="geometry"/>
                </mxCell>
                <mxCell id="57" value="availability" style="text;html=1;align=center;verticalAlign=middle;resizable=0;points=[];autosize=1;strokeColor=none;fillColor=none;" vertex="1" parent="4">
                    <mxGeometry x="-1" y="240" width="80" height="30" as="geometry"/>
                </mxCell>
                <mxCell id="12" style="edgeStyle=none;html=1;exitX=1;exitY=0.5;exitDx=0;exitDy=0;entryX=0;entryY=0.5;entryDx=0;entryDy=0;endArrow=none;endFill=0;" parent="1" source="10" target="4" edge="1">
                    <mxGeometry relative="1" as="geometry"/>
                </mxCell>
                <mxCell id="10" value="posseder" style="swimlane;whiteSpace=wrap;html=1;fillColor=#e3c800;fontColor=#000000;strokeColor=#B09500;" parent="1" vertex="1">
                    <mxGeometry x="330" y="160" width="190" height="80" as="geometry"/>
                </mxCell>
                <mxCell id="14" value="&lt;font style=&quot;font-size: 72px;&quot;&gt;MCD &lt;/font&gt;&lt;font style=&quot;font-size: 48px;&quot;&gt;PARKING&lt;/font&gt;&lt;font style=&quot;font-size: 72px;&quot;&gt;&amp;nbsp;&lt;/font&gt;" style="text;html=1;align=center;verticalAlign=middle;resizable=0;points=[];autosize=1;strokeColor=none;fillColor=none;" parent="1" vertex="1">
                    <mxGeometry x="95" y="10" width="440" height="100" as="geometry"/>
                </mxCell>
                <mxCell id="15" value="MLD &lt;font style=&quot;font-size: 48px;&quot;&gt;PARKING&lt;/font&gt;" style="text;html=1;align=center;verticalAlign=middle;resizable=0;points=[];autosize=1;strokeColor=none;fillColor=none;fontSize=72;" parent="1" vertex="1">
                    <mxGeometry x="200" y="405" width="410" height="100" as="geometry"/>
                </mxCell>
                <mxCell id="56" style="edgeStyle=none;html=1;exitX=1;exitY=0.5;exitDx=0;exitDy=0;entryX=0;entryY=0.25;entryDx=0;entryDy=0;fontSize=48;endArrow=none;endFill=0;" parent="1" source="20" target="21" edge="1">
                    <mxGeometry relative="1" as="geometry"/>
                </mxCell>
                <mxCell id="20" value="Users" style="swimlane;whiteSpace=wrap;html=1;fontSize=12;fillColor=#0050ef;fontColor=#ffffff;strokeColor=#001DBC;" parent="1" vertex="1">
                    <mxGeometry x="30" y="530" width="200" height="220" as="geometry"/>
                </mxCell>
                <mxCell id="42" value="last_name" style="text;html=1;align=center;verticalAlign=middle;resizable=0;points=[];autosize=1;strokeColor=none;fillColor=none;fontSize=12;" parent="20" vertex="1">
                    <mxGeometry x="10" y="95" width="80" height="30" as="geometry"/>
                </mxCell>
                <mxCell id="44" value="email" style="text;html=1;align=center;verticalAlign=middle;resizable=0;points=[];autosize=1;strokeColor=none;fillColor=none;fontSize=12;" parent="20" vertex="1">
                    <mxGeometry x="10" y="155" width="50" height="30" as="geometry"/>
                </mxCell>
                <mxCell id="43" value="phone" style="text;html=1;align=center;verticalAlign=middle;resizable=0;points=[];autosize=1;strokeColor=none;fillColor=none;fontSize=12;" parent="20" vertex="1">
                    <mxGeometry x="10" y="125" width="60" height="30" as="geometry"/>
                </mxCell>
                <mxCell id="45" value="role" style="text;html=1;align=center;verticalAlign=middle;resizable=0;points=[];autosize=1;strokeColor=none;fillColor=none;fontSize=12;" parent="20" vertex="1">
                    <mxGeometry x="10" y="190" width="40" height="30" as="geometry"/>
                </mxCell>
                <mxCell id="41" value="name" style="text;html=1;align=center;verticalAlign=middle;resizable=0;points=[];autosize=1;strokeColor=none;fillColor=none;fontSize=12;" parent="20" vertex="1">
                    <mxGeometry x="10" y="65" width="50" height="30" as="geometry"/>
                </mxCell>
                <mxCell id="40" value="user_id" style="text;html=1;align=center;verticalAlign=middle;resizable=0;points=[];autosize=1;strokeColor=none;fillColor=none;fontSize=12;" parent="20" vertex="1">
                    <mxGeometry x="10" y="35" width="60" height="30" as="geometry"/>
                </mxCell>
                <mxCell id="21" value="Parking" style="swimlane;whiteSpace=wrap;html=1;fontSize=12;startSize=23;fillColor=#0050ef;fontColor=#ffffff;strokeColor=#001DBC;" parent="1" vertex="1">
                    <mxGeometry x="566" y="530" width="200" height="290" as="geometry"/>
                </mxCell>
                <mxCell id="47" value="picture" style="text;html=1;align=center;verticalAlign=middle;resizable=0;points=[];autosize=1;strokeColor=none;fillColor=none;fontSize=12;" parent="21" vertex="1">
                    <mxGeometry x="5" y="90" width="60" height="30" as="geometry"/>
                </mxCell>
                <mxCell id="46" value="article_id" style="text;html=1;align=center;verticalAlign=middle;resizable=0;points=[];autosize=1;strokeColor=none;fillColor=none;fontSize=12;" parent="21" vertex="1">
                    <mxGeometry y="25" width="70" height="30" as="geometry"/>
                </mxCell>
                <mxCell id="49" value="price" style="text;html=1;align=center;verticalAlign=middle;resizable=0;points=[];autosize=1;strokeColor=none;fillColor=none;fontSize=12;" parent="21" vertex="1">
                    <mxGeometry x="5" y="120" width="50" height="30" as="geometry"/>
                </mxCell>
                <mxCell id="50" value="city" style="text;html=1;align=center;verticalAlign=middle;resizable=0;points=[];autosize=1;strokeColor=none;fillColor=none;fontSize=12;" parent="21" vertex="1">
                    <mxGeometry x="10" y="150" width="40" height="30" as="geometry"/>
                </mxCell>
                <mxCell id="51" value="street" style="text;html=1;align=center;verticalAlign=middle;resizable=0;points=[];autosize=1;strokeColor=none;fillColor=none;fontSize=12;" parent="21" vertex="1">
                    <mxGeometry x="5" y="180" width="50" height="30" as="geometry"/>
                </mxCell>
                <mxCell id="53" value="description" style="text;html=1;align=center;verticalAlign=middle;resizable=0;points=[];autosize=1;strokeColor=none;fillColor=none;fontSize=12;" parent="21" vertex="1">
                    <mxGeometry y="210" width="80" height="30" as="geometry"/>
                </mxCell>
                <mxCell id="48" value="title" style="text;html=1;align=center;verticalAlign=middle;resizable=0;points=[];autosize=1;strokeColor=none;fillColor=none;fontSize=12;" parent="21" vertex="1">
                    <mxGeometry x="5" y="55" width="40" height="30" as="geometry"/>
                </mxCell>
                <mxCell id="59" value="availability" style="text;html=1;align=center;verticalAlign=middle;resizable=0;points=[];autosize=1;strokeColor=none;fillColor=none;" vertex="1" parent="21">
                    <mxGeometry y="240" width="80" height="30" as="geometry"/>
                </mxCell>
                <mxCell id="23" value="user_id" style="text;html=1;align=center;verticalAlign=middle;resizable=0;points=[];autosize=1;strokeColor=none;fillColor=none;fontSize=12;" parent="1" vertex="1">
                    <mxGeometry x="50" y="145" width="60" height="30" as="geometry"/>
                </mxCell>
                <mxCell id="32" value="picture" style="text;html=1;align=center;verticalAlign=middle;resizable=0;points=[];autosize=1;strokeColor=none;fillColor=none;fontSize=12;" parent="1" vertex="1">
                    <mxGeometry x="620" y="175" width="60" height="30" as="geometry"/>
                </mxCell>
                <mxCell id="38" value="street" style="text;html=1;align=center;verticalAlign=middle;resizable=0;points=[];autosize=1;strokeColor=none;fillColor=none;fontSize=12;" parent="1" vertex="1">
                    <mxGeometry x="625" y="295" width="50" height="30" as="geometry"/>
                </mxCell>
            </root>
        </mxGraphModel>
    </diagram>
</mxfile>